<svg width="60" height="60" viewBox="0 0 60 60" fill="none" xmlns="http://www.w3.org/2000/svg">
<path d="M4.13393 35.3694C3.71384 39.9026 7.0411 43.9023 11.5678 44.3218C16.0882 44.7407 20.0937 41.4205 20.5138 36.8873C20.9327 32.367 17.6061 28.3608 13.0857 27.9419C8.55901 27.5225 4.55282 30.8491 4.13393 35.3694ZM5.75202 35.5194C6.08762 31.8979 9.30091 29.2297 12.9352 29.5665C16.5631 29.9027 19.2314 33.116 18.8958 36.7374C18.559 40.3717 15.3456 43.0399 11.7178 42.7037C8.08349 42.3669 5.41524 39.1537 5.75202 35.5194Z" fill="#333333"/>
<path d="M5.75182 35.5194C5.41504 39.1537 8.08329 42.367 11.7176 42.7038C15.3454 43.04 18.5588 40.3717 18.8956 36.7374C19.2312 33.116 16.5629 29.9027 12.935 29.5665C9.30071 29.2297 6.08742 31.898 5.75182 35.5194ZM6.23339 35.5641C6.54459 32.2059 9.51936 29.7357 12.8904 30.0481C16.2549 30.3599 18.7252 33.3347 18.414 36.6928C18.1016 40.0638 15.1268 42.534 11.7622 42.2222C8.3912 41.9098 5.92101 38.9351 6.23339 35.5641Z" fill="#A1A1A1"/>
<path d="M9.99356 35.9172C9.87416 37.2057 10.8203 38.3452 12.1089 38.4646C13.3956 38.5839 14.535 37.6377 14.6544 36.3491C14.7737 35.0625 13.8275 33.923 12.5408 33.8037C11.2523 33.6843 10.1128 34.6305 9.99356 35.9172Z" fill="#C5C5C5"/>
<path d="M11.1988 36.0294C11.1411 36.6514 11.5979 37.2015 12.22 37.2592C12.8411 37.3167 13.3912 36.86 13.4489 36.2379C13.5064 35.6167 13.0496 35.0666 12.4285 35.0091C11.8064 34.9514 11.2563 35.4082 11.1988 36.0294Z" fill="#444444"/>
<path d="M18.8316 31.7302L19.7854 33.8099L13.2566 36.8043C12.6771 37.0702 12.0018 36.8124 11.7399 36.2414C11.478 35.6703 11.7232 34.9905 12.3028 34.7247L18.8316 31.7302Z" fill="#4E4E4E"/>
<path d="M47.5249 21.8766C47.5249 23.5925 47.1161 24.9937 45.39 24.9937C43.674 24.9937 41.2905 23.5925 41.2905 21.8766C41.2905 20.1504 43.674 18.7594 45.39 18.7594C47.1161 18.7594 47.5249 20.1504 47.5249 21.8766Z" fill="#444444"/>
<path d="M45.9272 18.8173V24.9355C47.1994 24.6642 47.5245 23.3962 47.5245 21.8766C47.5245 20.348 47.1994 19.0869 45.9272 18.8173Z" fill="#E4F5FF"/>
<path d="M11.1985 20.3012H10.2421L9.42627 18.8572H10.3733L11.1985 20.3012Z" fill="#333333"/>
<path d="M11.661 21.1147L5.15605 22.9941L4.60519 22.4818L2.17653 23.1493L1.76465 24.243L3.34115 24.1435L3.72462 25.8479L1.92088 29.2565L2.06291 30.3785L6.55096 23.6322L12.3236 22.2798L11.661 21.1147Z" fill="#333333"/>
<path d="M43.6612 22.8705L43.3799 25.0084L40.52 31.3566L40.1636 31.0284L39.6948 29.9219L38.6165 31.7223L38.2039 34.9104L36.516 35.9044C36.516 35.9138 36.5067 35.9138 36.5067 35.9138L39.2635 38.0517L37.2287 39.4958H30.2054L26.7078 38.6894L26.6702 38.6612L27.0453 38.3236L19.2437 31.8911V31.8817L18.9624 31.6567C18.9624 31.6473 18.9624 31.6473 18.9624 31.6473L16.8339 29.8938L17.3402 29.2749L16.8245 28.8623C16.3556 28.4497 16.1306 27.3432 16.1306 27.3432L21.6911 29.6594L24.9543 28.7592L17.0589 23.3862L12.3236 22.2797L11.1983 20.3012L10.3731 18.8571L10.1669 18.4914L9.7168 17.6944C10.6732 17.1037 15.9524 18.107 16.8245 18.2383C17.6684 18.3695 17.7528 19.2135 18.5686 20.1137C19.375 21.0138 21.8693 21.4546 23.3883 21.5295C24.9074 21.6046 25.3106 21.2951 27.0172 20.0105C27.0922 19.9636 27.1391 19.9074 27.2141 19.8605C27.5798 19.5979 28.0299 19.3166 28.5081 19.0353V19.0259C30.3085 17.9757 32.5965 16.9349 33.1591 16.8692C33.9093 16.7942 38.5696 17.6756 39.4416 18.3133C39.9949 18.7165 39.9292 19.1666 39.8073 19.4385C39.7417 19.5979 39.6479 19.7011 39.6479 19.7011C39.6479 19.7011 39.6573 19.7105 39.6854 19.7198C39.8449 19.823 40.5294 20.2918 41.3451 21.117C42.1422 21.8953 41.5983 22.486 41.392 22.6642C41.3451 22.6923 41.317 22.711 41.317 22.711L43.6612 22.8705Z" fill="#4E4E4E"/>
<path d="M41.3965 22.663C41.3453 22.6888 41.3196 22.7145 41.3196 22.7145C41.3196 22.7145 40.033 23.0233 39.0809 23.332C38.1031 23.6666 38.3089 24.2068 38.0774 24.2583C37.8459 24.3099 32.0821 23.2548 31.3358 23.049C30.6152 22.8174 29.3286 23.332 28.7626 23.5379C28.1966 23.7179 28.1966 24.3612 27.9133 24.4642C27.6048 24.5671 24.9802 24.1297 24.7741 23.6666C24.5684 23.2034 27.09 21.4793 27.3988 20.9904C27.5533 20.7331 27.3988 20.2442 27.2185 19.8582C28.9684 18.5974 32.442 16.9507 33.1626 16.8734C33.9089 16.7962 38.5664 17.6711 39.4409 18.3144C40.316 18.9577 39.647 19.7038 39.647 19.7038C39.647 19.7038 40.419 20.1671 41.3453 21.1192C42.1428 21.8911 41.6026 22.4829 41.3965 22.663Z" fill="#2285D5"/>
<path d="M41.82 35.3694C41.3999 39.9026 44.7271 43.9023 49.2539 44.3218C53.7743 44.7407 57.7798 41.4205 58.1998 36.8873C58.6187 32.367 55.2922 28.3608 50.7718 27.9419C46.245 27.5225 42.2389 30.8491 41.82 35.3694ZM43.4381 35.5194C43.7737 31.8979 46.9869 29.2297 50.6212 29.5665C54.2491 29.9027 56.9174 33.116 56.5818 36.7374C56.245 40.3717 53.0317 43.0399 49.4038 42.7037C45.7695 42.3669 43.1013 39.1537 43.4381 35.5194Z" fill="#333333"/>
<path d="M43.4379 35.5194C43.1011 39.1537 45.7693 42.367 49.4036 42.7038C53.0315 43.04 56.2448 40.3717 56.5816 36.7374C56.9172 33.116 54.2489 29.9027 50.621 29.5665C46.9867 29.2297 43.7735 31.898 43.4379 35.5194ZM43.9194 35.5641C44.2306 32.2059 47.2054 29.7357 50.5764 30.0481C53.941 30.3599 56.4113 33.3347 56.1001 36.6928C55.7877 40.0638 52.8128 42.534 49.4482 42.2222C46.0772 41.9098 43.607 38.9351 43.9194 35.5641Z" fill="#C5C5C5"/>
<path d="M47.6796 35.9172C47.5602 37.2057 48.5064 38.3452 49.7949 38.4646C51.0816 38.5839 52.2211 37.6377 52.3405 36.3491C52.4597 35.0625 51.5135 33.923 50.2269 33.8037C48.9383 33.6843 47.7988 34.6305 47.6796 35.9172Z" fill="#C5C5C5"/>
<path d="M40.7354 34.6996C40.695 35.1363 40.6801 35.5753 40.7051 36.005C40.7289 36.7261 40.8322 37.4286 41.0091 38.1055C42.6613 38.0967 42.8552 37.4023 43.7 36.3926C44.6459 35.2693 44.1436 36.1488 45.4918 35.7168C46.84 35.2848 46.3244 34.2785 46.3244 34.2785C42.7584 32.2967 45.4356 30.032 45.4356 30.032C49.565 26.7039 53.9215 28.3316 55.4013 28.1579C55.9706 28.0941 56.2484 27.8219 56.368 27.5092C56.6474 26.755 53.3508 25.8955 51.5528 25.7289C46.0822 25.2219 41.2418 29.2354 40.7354 34.6996Z" fill="#2285D5"/>
<g opacity="0.15">
<path d="M55.4563 27.2752C54.8899 27.773 54.0282 27.6108 53.2848 27.4843C51.8405 27.2384 50.3439 27.2447 48.922 27.5981C47.5001 27.9515 46.1554 28.6608 45.1266 29.704C44.5951 30.2429 44.1395 30.8915 43.9937 31.6342C43.848 32.377 44.0663 33.2227 44.6697 33.6797C44.885 33.8427 45.1425 33.9545 45.3225 34.1559C45.5025 34.3573 45.5708 34.7027 45.3701 34.8835C45.187 35.0485 44.9039 34.9867 44.658 35.0042C44.1107 35.0433 43.6942 35.5102 43.4203 35.9857C43.1464 36.4612 42.9387 36.9952 42.5256 37.3564C42.2354 37.6101 41.7332 37.7303 41.4979 37.4249C41.4038 37.3028 41.379 37.1424 41.3608 36.9892C41.0282 34.1779 41.9976 31.239 43.9376 29.1773C46.2405 26.7298 49.4481 25.904 52.7047 26.2088C53.6964 26.3016 54.6639 26.6698 55.4563 27.2752Z" fill="white"/>
</g>
<path d="M49.282 36.0663C49.2447 36.4686 49.5401 36.8243 49.9424 36.8616C50.3441 36.8988 50.6998 36.6034 50.7371 36.2012C50.7743 35.7995 50.4789 35.4437 50.0772 35.4065C49.6749 35.3692 49.3192 35.6646 49.282 36.0663Z" fill="#444444"/>
<path d="M13.6928 21.8672C13.6928 22.4017 13.2614 22.833 12.7269 22.833C12.2018 22.833 11.7705 22.4017 11.7705 21.8672C11.7705 21.3421 12.2018 20.9108 12.7269 20.9108C13.2614 20.9108 13.6928 21.3421 13.6928 21.8672Z" fill="#D73149"/>
<path d="M27.4017 20.9858C27.0922 21.4828 24.5698 23.1988 24.7761 23.6676C24.7761 23.6676 23.304 23.5551 22.4037 23.4894C21.5036 23.4238 20.369 24.099 19.5813 24.0708C18.7843 24.052 17.2933 22.5237 16.4963 21.8673C15.6993 21.2202 15.1366 21.1827 14.5928 20.9108C14.0489 20.6389 13.9833 19.7012 13.4863 19.3449C12.9799 18.9885 10.1669 18.4915 10.1669 18.4915L9.7168 17.6945C10.6732 17.1038 15.9524 18.1071 16.8245 18.2384C17.6684 18.3696 17.7528 19.2136 18.5686 20.1138C19.375 21.0139 21.8693 21.4547 23.3883 21.5296C24.9074 21.6047 25.3106 21.2952 27.0172 20.0106C27.0922 19.9637 27.1391 19.9075 27.2141 19.8606C27.4017 20.245 27.5517 20.7326 27.4017 20.9858Z" fill="#333333"/>
<path d="M39.6479 19.7011C39.6479 19.7011 39.6573 19.7105 39.6854 19.7198L39.6667 19.748C39.3666 19.5136 39.0103 19.3073 38.6539 19.1198C38.2976 18.9416 37.9225 18.7821 37.5475 18.6415C36.7879 18.3602 35.9909 18.1539 35.1938 18.0039C36.0003 18.0977 36.8067 18.2477 37.6037 18.4821C37.9975 18.5947 38.382 18.7259 38.7665 18.8947C39.1228 19.0447 39.4697 19.2041 39.8073 19.4385C39.7416 19.5979 39.6479 19.7011 39.6479 19.7011Z" fill="#9EDDFF"/>
<path d="M45.4709 18.7729C45.4427 18.7635 45.4146 18.7635 45.3865 18.7635C43.6705 18.7635 41.2888 20.1513 41.2888 21.8766C41.2888 21.9985 41.2982 22.1204 41.3263 22.2423C40.9043 22.0548 40.4918 21.6422 40.4918 21.6422L40.3511 20.2075V19.3823L40.6418 19.1854L40.4448 18.7635L42.0295 18.004L42.2733 18.2571L44.4113 16.0254L45.2365 16.8693L45.4709 18.7729Z" fill="#333333"/>
<path d="M42.0233 18.8128C41.8182 18.8128 41.6245 18.6901 41.5439 18.4877L40.8228 16.6737H38.2231C37.9383 16.6737 37.7075 16.4429 37.7075 16.1581C37.7075 15.8733 37.9383 15.6426 38.2231 15.6426H41.1726C41.3837 15.6426 41.5737 15.7717 41.652 15.9677L42.5027 18.1068C42.608 18.3714 42.4784 18.6709 42.2138 18.7762C42.1515 18.8009 42.0869 18.8128 42.0233 18.8128Z" fill="#444444"/>
<path d="M27.0455 38.3237L26.5579 38.7551L26.361 38.9238L18.8407 37.2547L13.0551 33.0539C12.5019 32.6507 12.1549 32.013 12.1268 31.3285L11.958 27.5965C11.958 27.5965 11.958 26.5744 12.7832 26.5557L18.9626 31.6473V31.6567L19.2439 31.8818V31.8911L27.0455 38.3237Z" fill="#C5C5C5"/>
<path d="M18.9625 31.6473V31.6567C18.8593 33.007 18.6718 35.5669 18.4561 35.5669C18.1842 35.5294 13.5051 32.7163 12.7831 31.4692C12.0517 30.222 12.7831 26.5557 12.7831 26.5557L18.9625 31.6473Z" fill="#2285D5"/>
<path d="M27.0417 38.3288L26.5535 38.7596C26.4566 38.7594 20.9825 36.6576 19.4682 36.0755C19.237 35.9866 19.0905 35.7611 19.1006 35.5136L19.2483 31.8864L27.0417 38.3288Z" fill="#2285D5"/>
<path d="M18.0434 33.9166C18.0434 34.1406 17.8642 34.3198 17.6401 34.3198C17.416 34.3198 17.2368 34.1406 17.2368 33.9166C17.2368 33.6925 17.416 33.5133 17.6401 33.5133C17.8642 33.5133 18.0434 33.6925 18.0434 33.9166Z" fill="#444444"/>
<path d="M25.4755 37.5908C25.4755 37.8148 25.2963 37.994 25.0722 37.994C24.8482 37.994 24.6689 37.8148 24.6689 37.5908C24.6689 37.3667 24.8482 37.1875 25.0722 37.1875C25.2963 37.1875 25.4755 37.3667 25.4755 37.5908Z" fill="#444444"/>
<path d="M24.087 24.2987C24.087 24.2987 22.2253 24.7312 22.1367 24.9937C22.048 25.2561 23.165 26.9404 26.0904 28.8552L27.8989 26.4263L27.4627 26.3022L27.8989 25.1143L24.087 24.2987Z" fill="#444444"/>
<path d="M39.4884 29.1718L39.6946 29.9219L39.0008 31.0753L38.6163 31.7223L38.2037 34.9105L36.5158 35.9044C36.5158 35.9138 36.5065 35.9138 36.5065 35.9138C36.4596 35.9232 36.0658 36.1107 33.5902 37.3766C30.3646 39.0082 28.4235 37.1891 28.4235 37.1891L28.2735 35.0136L28.6205 35.1637L28.8455 33.9728L28.0485 33.1195L27.0452 32.3694L23.9883 31.5535L24.6728 29.8282L26.0887 28.853L27.3265 29.9595L30.4959 27.0339L35.672 23.8926C36.9284 24.1082 37.988 24.2771 38.0818 24.2583L40.2104 25.5429L39.4884 29.1718Z" fill="#333333"/>
<path d="M38.2366 37.3733L37.5322 36.7624L37.5615 36.7288C38.1871 36.011 38.6097 35.0313 38.817 33.8155C38.9717 32.8771 38.9747 31.9043 38.9574 31.0762L38.957 31.0633L38.9635 31.0529L39.7351 29.7699L39.739 29.9216C39.7459 30.1835 39.7609 30.4868 39.7769 30.8074C39.8269 31.8026 39.8885 33.0417 39.7385 33.9706C39.4999 35.3544 39.0044 36.4884 38.2655 37.3406L38.2366 37.3733ZM37.6567 36.7538L38.2276 37.2492C38.9398 36.4134 39.4189 35.3061 39.6515 33.9568C39.8001 33.0374 39.7385 31.8026 39.689 30.8117C39.6756 30.5497 39.6631 30.2998 39.6554 30.0741L39.0458 31.0874C39.063 31.9163 39.0591 32.8892 38.904 33.8301C38.6968 35.0433 38.2776 36.0265 37.6567 36.7538Z" fill="#E4F5FF"/>
<path d="M33.9938 32.7444C33.9938 33.9634 33.0092 34.9574 31.7808 34.9574C30.5618 34.9574 29.5679 33.9634 29.5679 32.7444C29.5679 31.516 30.5618 30.5221 31.7808 30.5221C33.0092 30.5221 33.9938 31.516 33.9938 32.7444Z" fill="#444444"/>
<path d="M33.012 32.7423C33.012 33.4204 32.4642 33.9734 31.7809 33.9734C31.1027 33.9734 30.5498 33.4204 30.5498 32.7423C30.5498 32.0589 31.1027 31.506 31.7809 31.506C32.4642 31.506 33.012 32.0589 33.012 32.7423Z" fill="#C5C5C5"/>
<path d="M34.8323 35.6023C34.8323 36.174 34.3706 36.6401 33.7946 36.6401C33.2229 36.6401 32.7568 36.174 32.7568 35.6023C32.7568 35.0263 33.2229 34.5602 33.7946 34.5602C34.3706 34.5602 34.8323 35.0263 34.8323 35.6023Z" fill="#A1A1A1"/>
<path d="M34.3719 35.6014C34.3719 35.9194 34.1151 36.1787 33.7946 36.1787C33.4766 36.1787 33.2173 35.9194 33.2173 35.6014C33.2173 35.2809 33.4766 35.0216 33.7946 35.0216C34.1151 35.0216 34.3719 35.2809 34.3719 35.6014Z" fill="#C5C5C5"/>
<path d="M37.8363 28.9144L36.8334 31.5809C36.7394 31.8309 36.4655 31.9613 36.2155 31.8673L34.9732 31.4001C34.7232 31.3061 34.5956 31.0246 34.6896 30.7746L35.6925 28.1081C35.7836 27.8657 36.0651 27.7382 36.3151 27.8322L37.5574 28.2994C37.8074 28.3934 37.9274 28.672 37.8363 28.9144Z" fill="#444444"/>
<path d="M35.3818 28.9329L35.6098 28.3267L37.7538 29.1329L37.5258 29.7391L35.3818 28.9329Z" fill="#4E4E4E"/>
<path d="M34.8125 30.4479L35.0405 29.8417L37.1845 30.648L36.9565 31.2542L34.8125 30.4479Z" fill="#4E4E4E"/>
<path d="M28.6957 30.8128C28.6957 31.2535 28.3393 31.6098 27.8986 31.6098C27.4579 31.6098 27.1016 31.2535 27.1016 30.8128C27.1016 30.3721 27.4579 30.0157 27.8986 30.0157C28.3393 30.0157 28.6957 30.3721 28.6957 30.8128Z" fill="#848381"/>
<path d="M28.6865 30.9159C28.6958 30.8878 28.6958 30.8502 28.6958 30.8127C28.6958 30.5689 28.5833 30.3533 28.4146 30.2126L39.3949 25.0553L40.1638 25.5148L28.6865 30.9159Z" fill="#444444"/>
<path d="M30.5618 26.5739C30.7221 26.5739 30.8521 26.4439 30.8521 26.2836C30.8521 26.1233 30.7221 25.9933 30.5618 25.9933C30.4015 25.9933 30.2715 26.1233 30.2715 26.2836C30.2715 26.4439 30.4015 26.5739 30.5618 26.5739Z" fill="#C5C5C5"/>
<path d="M42.7216 18.2971L48.1589 30.5588C48.2167 30.6892 48.1579 30.8419 48.0274 30.8997L47.2054 31.2642C47.075 31.3221 46.9223 31.2632 46.8645 31.1328L41.4272 18.8711L42.7216 18.2971Z" fill="#4E4E4E"/>
<path d="M49.396 36.2923L47.1729 31.2787L48.0601 30.8853L50.2834 35.8988C50.5807 36.5694 49.6934 36.9628 49.396 36.2923Z" fill="#848381"/>
<path d="M45.3316 23.6738L46.031 25.251C46.069 25.3368 46.0356 25.4234 45.9499 25.4614L44.5699 26.0734C44.4841 26.1114 44.3975 26.078 44.3595 25.9922L43.6601 24.415C43.6221 24.3293 43.6555 24.2427 43.7412 24.2047L45.1213 23.5927C45.207 23.5547 45.2936 23.5881 45.3316 23.6738Z" fill="#848381"/>
<path d="M42.86 18.1006L43.5593 19.6778C43.5974 19.7635 43.564 19.8501 43.4783 19.8881L42.0982 20.5001C42.0124 20.5381 41.9258 20.5047 41.8878 20.419L41.1884 18.8418C41.1504 18.756 41.1838 18.6695 41.2696 18.6314L42.6496 18.0195C42.7353 17.9815 42.8219 18.0148 42.86 18.1006Z" fill="#848381"/>
<g opacity="0.2">
<path d="M35.066 18.514C34.8671 18.4446 34.6491 18.359 34.556 18.1701C34.4628 17.9812 34.6213 17.687 34.8223 17.75C33.8121 17.4505 32.7124 17.5894 31.7196 17.9425C30.7268 18.2956 29.821 18.8519 28.9236 19.4041C28.6079 19.5984 28.2737 19.8136 28.1285 20.1547C28.0107 20.4316 28.0379 20.7464 27.9818 21.042C27.8946 21.5009 27.5923 21.9142 27.1813 22.1362C26.7993 22.3426 26.2743 22.4536 26.1625 22.8731C26.0994 23.1097 26.2098 23.3655 26.3817 23.5399C26.5536 23.7143 26.7792 23.8234 27.0001 23.9291C27.8511 22.7837 29.1808 21.9225 30.6077 21.9274C31.6901 21.9312 32.7031 22.4146 33.7195 22.7867C34.7359 23.1588 35.8858 23.4213 36.8804 22.9942C37.4398 22.7539 37.9484 22.2995 38.5566 22.3272C38.858 22.3409 39.1577 22.4762 39.4524 22.4111C39.9489 22.3014 40.1573 21.6496 39.9788 21.1734C39.7386 20.5323 38.9858 19.8885 38.3526 19.6597C37.2617 19.2655 36.1613 18.8958 35.066 18.514Z" fill="white"/>
</g>
<g opacity="0.1">
<path d="M11.3867 18.0838C12.7383 17.9346 14.2122 17.8412 15.5079 18.5524C16.1708 18.8857 16.6089 19.5164 17.043 20.0083C17.4769 20.5072 18.0293 20.876 18.6366 21.1528C19.8496 21.7047 21.2036 22.0733 22.5348 22.2108C23.8635 22.3325 25.2834 22.0705 26.3669 21.1943C25.4107 22.2275 23.9108 22.6293 22.5136 22.5708C21.8058 22.557 21.1114 22.4148 20.4342 22.2473C19.7598 22.0727 19.0853 21.875 18.4366 21.5762C17.7969 21.2706 17.1842 20.8436 16.7222 20.2885C16.2675 19.739 15.8893 19.2045 15.3254 18.8615C14.1934 18.1475 12.7524 18.121 11.3867 18.0838Z" fill="white"/>
</g>
</svg>
